inDegrees=no
num_controls=7
num_derivatives=13
num_iterations=84
num_multipliers=7
num_parameters=0
num_slacks=7
num_states=26
objective=0.333928
objective_accelerations=0.037047
objective_balance=0.001329
objective_effort=0.027199
objective_height=0.266882
objective_ligament=0.001472
solver_duration=885.485076
status=Solve_Succeeded
success=true
DataType=double
version=3
OpenSimVersion=4.5
endheader
time	/jointset/ground_pelvis/pelvis_tilt/value	/jointset/ground_pelvis/pelvis_tx/value	/jointset/ground_pelvis/pelvis_ty/value	/jointset/hip_r/hip_flexion_r/value	/jointset/hip_r/hip_adduction_r/value	/jointset/hip_r/hip_rotation_r/value	/jointset/back/lumbar_extension/value	/jointset/patellofemoral_r/patellar_flexion_r/value	/jointset/knee_r/knee_flexion_r/value	/jointset/knee_r/knee_adduction_r/value	/jointset/knee_r/knee_rotation_r/value	/jointset/ankle_r/ankle_angle_r/value	/jointset/subtalar_r/subtalar_angle_r/value	/jointset/ground_pelvis/pelvis_tilt/speed	/jointset/ground_pelvis/pelvis_tx/speed	/jointset/ground_pelvis/pelvis_ty/speed	/jointset/hip_r/hip_flexion_r/speed	/jointset/hip_r/hip_adduction_r/speed	/jointset/hip_r/hip_rotation_r/speed	/jointset/back/lumbar_extension/speed	/jointset/patellofemoral_r/patellar_flexion_r/speed	/jointset/knee_r/knee_flexion_r/speed	/jointset/knee_r/knee_adduction_r/speed	/jointset/knee_r/knee_rotation_r/speed	/jointset/ankle_r/ankle_angle_r/speed	/jointset/subtalar_r/subtalar_angle_r/speed	/forceset/tau_hip_flexion_r	/forceset/tau_hip_adduction_r	/forceset/tau_hip_rotation_r	/forceset/tau_knee_flexion_r	/forceset/tau_ankle_angle_r	/forceset/tau_subtalar_angle_r	/forceset/tau_lumbar_extension	lambda_cid13_p0	lambda_cid14_p0	lambda_cid14_p1	lambda_cid14_p2	lambda_cid14_p3	lambda_cid14_p4	lambda_cid14_p5	/jointset/ground_pelvis/pelvis_tilt/accel	/jointset/ground_pelvis/pelvis_tx/accel	/jointset/ground_pelvis/pelvis_ty/accel	/jointset/hip_r/hip_flexion_r/accel	/jointset/hip_r/hip_adduction_r/accel	/jointset/hip_r/hip_rotation_r/accel	/jointset/back/lumbar_extension/accel	/jointset/patellofemoral_r/patellar_flexion_r/accel	/jointset/knee_r/knee_flexion_r/accel	/jointset/knee_r/knee_adduction_r/accel	/jointset/knee_r/knee_rotation_r/accel	/jointset/ankle_r/ankle_angle_r/accel	/jointset/subtalar_r/subtalar_angle_r/accel	gamma_cid13_p0	gamma_cid14_p0	gamma_cid14_p1	gamma_cid14_p2	gamma_cid14_p3	gamma_cid14_p4	gamma_cid14_p5
0.5	-0.1712867276156605	0.0290266277466622	0.8045546192944221	0.9217220430181728	-0.2242639379936912	-0.1220716718167144	-0.6475914099198261	0.9540647623298781	0.9540647623298746	-0.04516682726189079	0.1744780830793728	0.2950294180886866	0.1366519693812187	-0.4379211132308847	-0.2057644861291005	-0.5085879282763749	1.950651014770019	-0.009107617658040556	0.1789794207583328	-0.7353037781945614	1.931049499408598	1.931049499408598	-0.4618229726622074	-0.0003658013595673666	0.5302184384750096	0.1945802582265601	-0.2144899546476949	0.02711465937768456	0.01520919302499652	-0.2667105908479208	-0.01715699227225913	-0.006118057164298587	0.2492781854809785	-8.456710530673925	-48.29356617535559	-10.36643714339345	1.221957460304431	-2.843802855540363	-640.0098458967451	49.36624036523102	0.3705310796485307	0.5930631154333792	-0.4299885302772457	-1.320607147188348	-0.2479496750777942	-0.591159608322773	1.824797744228538	-1.362419224554576	-1.362419224554576	0.4921118325828443	-0.03660928955966611	-0.5845383546170486	-0.4061657198118461	-1.488938727137812e-07	-1.459688357749352e-07	6.332583096337401e-07	-1.503563746209853e-06	2.316097618000303e-08	-2.692032281363003e-07	4.566073001752624e-07
0.51	-0.1756464237987222	0.02699881951693538	0.7994484383984802	0.9411594149734075	-0.2243679613894373	-0.1203113466361048	-0.6548527088811829	0.9733043048716585	0.9733043048716575	-0.04975876279021314	0.1744737361319419	0.3003012792389436	0.1385760097141425	-0.4339477527298558	-0.1997810613487185	-0.5125329970886474	1.936564147848954	-0.01166627702889946	0.1730020161101272	-0.7168703613614539	1.916586674279744	1.916586674279746	-0.4566387992544151	-0.0004753855483198553	0.52407862354365	0.1902287550633206	-0.2214958078452874	0.02852488779007835	0.01516975337544545	-0.2710463443311748	-0.01860083321192317	-0.005703288243560642	0.2556122471457321	-7.50929512867078	-49.08382546379195	-10.51121545592124	1.458117489401179	-2.742447160931702	-645.1562396518523	49.37100979636874	0.4212792658509074	0.6034010221065251	-0.35953076350244	-1.491630677805129	-0.2553832754153571	-0.613827228522572	1.865461560149568	-1.529033457855036	-1.529033457854743	0.5204597127426625	0.005818778933679023	-0.6400069006707538	-0.449576448928778	-1.509470012586473e-07	-1.537993147259128e-07	5.60488806499505e-07	-1.573148649117428e-06	3.349861896659051e-08	-2.607743559399766e-07	3.738024847310478e-07
0.52	-0.1799642782306694	0.02503132930756557	0.7943062538730556	0.9604481374167834	-0.2244966832203571	-0.1186133547690678	-0.6619271040927489	0.9923910553019897	0.992391055301991	-0.05430107866088454	0.1744690836951167	0.3055094814722319	0.1404565482485642	-0.4295527630079931	-0.1937008820576999	-0.5157886541729273	1.920921112398305	-0.01404730469277533	0.1665127580437968	-0.6979230282364373	1.90049107711872	1.900491077118724	-0.4518990411320118	-0.0004268992384035791	0.5174866550812768	0.1858798985261301	-0.22850166104288	0.02993511620247208	0.01513031372589399	-0.2753820978144131	-0.02004467415158722	-0.005288519322822742	0.261946308810471	-6.620987645111565	-49.8709726092907	-10.65072884811278	1.688045649546449	-2.675030526922519	-650.2640907271214	49.43432007357583	0.454856923815293	0.6124140175607012	-0.2921061846787376	-1.631840853105181	-0.2124233336811882	-0.6935302919477221	1.927581002610415	-1.68897363098858	-1.688973630988649	0.4032287755050669	-0.004995189825913432	-0.674969060819757	-0.4056363946020268	-1.437749815902894e-07	-1.633816198789539e-07	3.559520571691104e-07	-1.684175791750125e-06	5.983554180632046e-08	-2.544562521207252e-07	2.193575925091735e-07
0.53	-0.1842361539255072	0.02312505385683485	0.7891349889040579	0.9795727975466267	-0.224648595319419	-0.1169806870250802	-0.6688096009560297	1.011309034091709	1.011309034091705	-0.05879610734851732	0.1744648419817186	0.3106494716906177	0.1422931123809925	-0.4247546712846939	-0.1875446354157506	-0.5183451164975078	1.903756520763046	-0.01633096010056883	0.1600893463335395	-0.67851015295878	1.88285708154842	1.88285708154842	-0.447009188063261	-0.0004371051416064646	0.5104321859773527	0.1813859792808445	-0.2353412696821704	0.03108334920837964	0.01518363742370967	-0.2799581892021187	-0.02144151377741726	-0.004934333486725858	0.2681030871352686	-5.792523745927363	-50.65902883057487	-10.81892023962862	1.925068022090079	-2.526847300860796	-655.4760514574615	49.50798602894589	0.5024229694092509	0.6186806222314361	-0.2195830145057882	-1.796950843731789	-0.2359504449614731	-0.6067110905427902	1.958069509486881	-1.837724409968017	-1.837724409968496	0.5465296323300894	-0.001717415231762027	-0.7325815356300197	-0.4784795453663553	-1.418874472152228e-07	-1.655050789894729e-07	2.763581052828415e-07	-1.715100218123215e-06	6.616310876102652e-08	-2.391936165669059e-07	1.352771261495567e-07
